<svg width="400" height="900" viewBox="0 0 400 900" fill="none" xmlns="http://www.w3.org/2000/svg">
<g clip-path="url(#clip0_207_52)">
<path d="M200 900C225.956 887.8 251.911 875.6 252.356 855.5C252.711 835.3 227.644 807.2 226.756 787.5C225.956 767.8 249.511 756.5 270.489 754.3C291.556 752.1 310.044 759 321.778 747.6C333.511 736.2 338.4 706.5 350.311 691.4C362.222 676.2 381.067 675.6 400 675V900H200Z" fill="#D8DEFE"/>
<path d="M266.667 900C284 891.9 301.245 883.8 301.511 870.3C301.778 856.9 285.067 838.1 284.533 825C284 811.9 299.645 804.4 313.689 802.9C327.733 801.4 340 806 347.822 798.4C355.645 790.8 358.934 771 366.845 760.9C374.845 750.8 387.378 750.4 400 750V900H266.667Z" fill="#809FF9"/>
<path d="M333.333 900C341.956 895.9 350.667 891.9 350.756 885.2C350.934 878.4 342.578 869.1 342.222 862.5C341.956 855.9 349.867 852.2 356.8 851.4C363.822 850.7 370.045 853 373.956 849.2C377.867 845.4 379.467 835.5 383.467 830.5C387.378 825.4 393.689 825.2 400 825V900H333.333Z" fill="#3B82F6"/>
<path d="M140 0C138.32 15.1141 136.64 30.3058 132.222 44.1023C127.804 57.9763 120.649 70.5326 112.062 80.6087C103.538 90.6848 93.6444 98.3581 84.9333 105.799C76.2222 113.162 68.7556 120.37 61.2889 132.229C53.8222 144.088 46.4178 160.675 36.2133 168.426C26.0089 176.254 13.0044 175.324 0 174.394V0H140Z" fill="#D8DEFE"/>
<path d="M93.3334 0C92.2134 10.0761 91.0934 20.2297 88.169 29.4532C85.1823 38.6767 80.3912 46.9701 74.7289 53.7133C69.0045 60.4565 62.4089 65.5721 56.6223 70.5326C50.8356 75.4931 45.7956 80.2211 40.88 88.127C35.9022 96.0328 30.9867 107.117 24.1422 112.31C17.36 117.503 8.6489 116.883 0 116.263V0H93.3334Z" fill="#809FF9"/>
<path d="M46.6667 0C46.1067 5.03804 45.5467 10.0761 44.0534 14.7266C42.6223 19.2996 40.1956 23.485 37.3334 26.8954C34.5334 30.2283 31.2356 32.786 28.3111 35.2663C25.3867 37.7466 22.8978 40.1493 20.4089 44.1023C17.92 48.0552 15.4933 53.5583 12.0711 56.1161C8.6489 58.7513 4.35556 58.4413 0 58.1313V0H46.6667Z" fill="#3B82F6"/>
</g>
<defs>
<clipPath id="clip0_207_52">
<rect width="400" height="900" fill="white"/>
</clipPath>
</defs>
</svg>
