<svg width="768" height="700" viewBox="0 0 768 700" fill="none" xmlns="http://www.w3.org/2000/svg">
<g clip-path="url(#clip0_207_32)">
<path d="M508.2 700C503.3 673.4 498.4 646.8 517.1 632.8C535.8 618.7 578.1 617.2 588.7 596.5C599.4 575.8 578.3 535.9 586.3 518.3C594.2 500.7 631.2 505.5 657 507.7C682.8 510 697.3 509.8 713.9 498.1C730.5 486.5 749.3 463.3 768 440.2V700H508.2Z" fill="#D8DEFE"/>
<path d="M594.8 700C591.5 682.3 588.2 664.5 600.7 655.2C613.2 645.8 641.4 644.8 648.5 631C655.6 617.2 641.5 590.6 646.8 578.8C652.2 567.1 676.8 570.3 694 571.8C711.2 573.3 720.9 573.2 731.9 565.4C743 557.6 755.5 542.2 768 526.8V700H594.8Z" fill="#809FF9"/>
<path d="M681.4 700C679.8 691.1 678.1 682.3 684.4 677.6C690.6 672.9 704.7 672.4 708.2 665.5C711.8 658.6 704.8 645.3 707.4 639.4C710.1 633.6 722.4 635.2 731 635.9C739.6 636.7 744.4 636.6 750 632.7C755.5 628.8 761.8 621.1 768 613.4V700H681.4Z" fill="#3B82F6"/>
<path d="M259.8 0C227.5 14.1 195.2 28.1 193.2 51.8C191.2 75.4 219.4 108.6 215.6 124.5C211.9 140.4 176 139.2 159.8 159.8C143.6 180.4 147 223 129.9 225C112.8 227 75.3 188.4 50.2 187.4C25.2 186.4 12.6 223.1 0 259.8V0H259.8Z" fill="#D8DEFE"/>
<path d="M173.2 0C151.7 9.4 130.1 18.8 128.8 34.5C127.4 50.3 146.3 72.4 143.8 83C141.2 93.6 117.4 92.8 106.5 106.5C95.7 120.3 98 148.7 86.6 150C75.2 151.3 50.2 125.6 33.5 124.9C16.8 124.3 8.4 148.7 0 173.2V0H173.2Z" fill="#809FF9"/>
<path d="M86.6 0C75.8 4.7 65.1 9.4 64.4 17.3C63.7 25.1 73.1 36.2 71.9 41.5C70.6 46.8 58.7 46.4 53.3 53.3C47.9 60.1 49 74.3 43.3 75C37.6 75.7 25.1 62.8 16.7 62.5C8.4 62.1 4.2 74.4 0 86.6V0H86.6Z" fill="#3B82F6"/>
</g>
<defs>
<clipPath id="clip0_207_32">
<rect width="768" height="700" fill="white"/>
</clipPath>
</defs>
</svg>
