<svg width="1024" height="750" viewBox="0 0 1024 750" fill="none" xmlns="http://www.w3.org/2000/svg">
<g clip-path="url(#clip0_207_12)">
<path d="M611.5 750C614.4 714.3 617.3 678.6 625.5 643.2C633.8 607.9 647.3 572.9 671.5 546.5C695.8 520.1 730.9 502.3 762.4 488.4C793.9 474.5 821.9 464.4 846.5 442.6C871.1 420.7 892.5 387 921.5 367.5C950.5 348 987.3 342.7 1024 337.5V750H611.5Z" fill="#D8DEFE"/>
<path d="M749 750C750.9 726.2 752.9 702.4 758.4 678.8C763.8 655.3 772.8 631.9 789 614.3C805.2 596.7 828.6 584.9 849.6 575.6C870.6 566.3 889.2 559.6 905.7 545C922.1 530.5 936.3 508 955.7 495C975 482 999.5 478.5 1024 475V750H749Z" fill="#809FF9"/>
<path d="M886.5 750C887.5 738.1 888.4 726.2 891.2 714.4C893.9 702.6 898.4 691 906.5 682.2C914.6 673.4 926.3 667.4 936.8 662.8C947.3 658.2 956.6 654.8 964.8 647.5C973 640.2 980.2 629 989.8 622.5C999.5 616 1011.8 614.2 1024 612.5V750H886.5Z" fill="#3B82F6"/>
<path d="M412.5 0C390.8 34.4 369.1 68.8 340 91.1C311 113.4 274.6 123.6 267.6 154.5C260.6 185.4 283.1 237 278.6 278.6C274.1 320.2 242.8 351.8 206.3 357.2C169.8 362.7 128.1 341.9 92.9 346.8C57.7 351.6 28.8 382.1 0 412.5V0H412.5Z" fill="#D8DEFE"/>
<path d="M275 0C260.5 22.9 246 45.9 226.7 60.7C207.3 75.6 183 82.4 178.4 103C173.8 123.6 188.7 158 185.7 185.7C182.8 213.5 161.8 234.5 137.5 238.2C113.2 241.8 85.4 227.9 61.9 231.2C38.5 234.4 19.2 254.7 0 275V0H275Z" fill="#809FF9"/>
<path d="M137.5 0C130.3 11.5 123 22.9 113.3 30.4C103.7 37.8 91.5 41.2 89.2 51.5C86.9 61.8 94.4 79 92.9 92.9C91.4 106.7 80.9 117.3 68.8 119.1C56.6 120.9 42.7 114 31 115.6C19.2 117.2 9.6 127.4 0 137.5V0H137.5Z" fill="#3B82F6"/>
</g>
<defs>
<clipPath id="clip0_207_12">
<rect width="1024" height="750" fill="white"/>
</clipPath>
</defs>
</svg>
